<?xml version="1.0" encoding="UTF-8"?>
<svg id="Layer_1" data-name="Layer 1" xmlns="http://www.w3.org/2000/svg" xmlns:xlink="http://www.w3.org/1999/xlink" viewBox="0 0 264 109">
  <defs>
    <style>
      .cls-1 {
        fill: url(#radial-gradient-7);
      }

      .cls-2 {
        fill: url(#radial-gradient-10);
      }

      .cls-3 {
        fill: #fff;
        opacity: .3;
      }

      .cls-4 {
        fill: url(#radial-gradient-16);
      }

      .cls-5 {
        fill: url(#radial-gradient-8);
      }

      .cls-6 {
        fill: url(#radial-gradient-5);
      }

      .cls-7 {
        fill: url(#radial-gradient-4);
      }

      .cls-8 {
        fill: #2bb673;
        font-family: TrebuchetMS, 'Trebuchet MS';
        font-size: 25.62px;
      }

      .cls-9 {
        fill: url(#radial-gradient-6);
      }

      .cls-10 {
        fill: url(#radial-gradient-12);
      }

      .cls-11 {
        fill: url(#radial-gradient);
      }

      .cls-12 {
        fill: url(#radial-gradient-13);
      }

      .cls-13 {
        fill: url(#radial-gradient-15);
      }

      .cls-14 {
        fill: url(#radial-gradient-2);
      }

      .cls-15 {
        fill: url(#radial-gradient-3);
      }

      .cls-16 {
        fill: url(#radial-gradient-14);
      }

      .cls-17 {
        fill: none;
        stroke: #2e3192;
        stroke-miterlimit: 10;
      }

      .cls-18 {
        fill: url(#radial-gradient-11);
      }

      .cls-19 {
        fill: url(#radial-gradient-9);
      }
    </style>
    <radialGradient id="radial-gradient" cx="69.88" cy="32.61" fx="69.88" fy="32.61" r="4.93" gradientUnits="userSpaceOnUse">
      <stop offset="0" stop-color="#39b54a"/>
      <stop offset=".42" stop-color="#209342"/>
      <stop offset="1" stop-color="#006838"/>
    </radialGradient>
    <radialGradient id="radial-gradient-2" cx="74.96" cy="19.37" fx="74.96" fy="19.37" r="10.2" gradientUnits="userSpaceOnUse">
      <stop offset="0" stop-color="#27aae1"/>
      <stop offset=".45" stop-color="#2b83c6"/>
      <stop offset="1" stop-color="#3058a8"/>
    </radialGradient>
    <radialGradient id="radial-gradient-3" cx="57.48" cy="41.67" fx="57.48" fy="41.67" r="3.49" xlink:href="#radial-gradient"/>
    <radialGradient id="radial-gradient-4" cx="-1.56" cy="22.59" fx="-1.56" fy="22.59" r="9.07" gradientTransform="translate(37.18 19.46) rotate(-45)" xlink:href="#radial-gradient-2"/>
    <radialGradient id="radial-gradient-5" cx="81.3" cy="31.35" fx="81.3" fy="31.35" r="7.06" xlink:href="#radial-gradient"/>
    <radialGradient id="radial-gradient-6" cx="224.72" cy="217.45" fx="224.72" fy="217.45" r="13.17" gradientTransform="translate(411.82 19.46) rotate(-135) scale(1 -1)" xlink:href="#radial-gradient-2"/>
    <radialGradient id="radial-gradient-7" cx="58.63" cy="64.95" fx="58.63" fy="64.95" r="7.28" xlink:href="#radial-gradient"/>
    <radialGradient id="radial-gradient-8" cx="51.16" cy="377.52" fx="51.16" fy="377.52" r="15.55" gradientTransform="translate(0 467) scale(1 -1)" xlink:href="#radial-gradient-2"/>
    <radialGradient id="radial-gradient-9" cx="48.87" cy="63.18" fx="48.87" fy="63.18" r="6.99" xlink:href="#radial-gradient"/>
    <radialGradient id="radial-gradient-10" cx="-262.96" cy="257.09" fx="-262.96" fy="257.09" r="11.84" gradientTransform="translate(37.18 447.54) rotate(45) scale(1 -1)" xlink:href="#radial-gradient-2"/>
    <radialGradient id="radial-gradient-11" cx="74.46" cy="55.89" fx="74.46" fy="55.89" r="5.72" xlink:href="#radial-gradient"/>
    <radialGradient id="radial-gradient-12" cx="-39.62" cy="496.21" fx="-39.62" fy="496.21" r="18.3" gradientTransform="translate(411.82 447.54) rotate(135)" xlink:href="#radial-gradient-2"/>
    <radialGradient id="radial-gradient-13" cx="49.46" cy="52.97" fx="49.46" fy="52.97" r="4.65" xlink:href="#radial-gradient"/>
    <radialGradient id="radial-gradient-14" cx="-55.86" cy="42.68" fx="-55.86" fy="42.68" r="9.63" gradientTransform="translate(-5.87 2.21) rotate(-90)" xlink:href="#radial-gradient-2"/>
    <radialGradient id="radial-gradient-15" cx="83.76" cy="40.29" fx="83.76" fy="40.29" r="7.16" xlink:href="#radial-gradient"/>
    <radialGradient id="radial-gradient-16" cx="-29.41" cy="485.82" fx="-29.41" fy="485.82" r="16.95" gradientTransform="translate(595.87 2.21) rotate(-90) scale(1 -1)" xlink:href="#radial-gradient-2"/>
  </defs>
  <polygon class="cls-11" points="69.34 37.62 66.61 38.76 67.98 34.91 70.53 27.69 73.14 26.45 70.66 33.73 69.34 37.62"/>
  <path class="cls-14" d="m85.46,13.63c-1.35,4.68-7.81,11.2-13.93,14.08-5.7,2.69-8.55.98-6.8-3.44,1.66-4.19,7.04-9.68,12.38-12.62,5.69-3.13,9.62-2.43,8.35,1.98Z"/>
  <path class="cls-3" d="m83.58,12.78c.19-2.75-3.28-2.55-7.58.21-2.06,1.33-3.99,3.03-5.46,4.73,2.73-1.36,5.67-2.38,8.21-2.25,1.35.07,2.74-.12,4.12-.48.41-.81.66-1.56.71-2.21Z"/>
  <polygon class="cls-15" points="61.06 42.62 58.62 45.07 56.98 43.48 53.91 40.51 56.12 38.27 59.34 41.1 61.06 42.62"/>
  <path class="cls-7" d="m60.21,27.75c2.25,1.38.1,6.76-4.94,11.87s-10.35,7.34-11.86,5.26c-1.4-1.92,1.01-6.92,5.31-11.32s9.42-7.09,11.49-5.81Z"/>
  <path class="cls-3" d="m57.37,28.99c-1.99-.39-5.93,2.1-8.93,5.55-1.49,1.72-2.51,3.4-2.98,4.76,2.36-2.31,5.18-4.68,8.38-6.56,1.67-.98,3.16-2.01,4.49-3.04-.18-.37-.49-.62-.96-.71Z"/>
  <polygon class="cls-6" points="74.03 37.2 75.59 38.19 79.66 34.11 88.57 25.2 86.7 24.5 78 33.22 74.03 37.2"/>
  <path class="cls-9" d="m90.23,12.57c-5.71,5.76-7.35,11.52-3.37,13.05,4.43,1.7,14.03-2.37,21.04-9.33s7.66-13.17,1.86-13.59c-5.21-.39-13.77,4.07-19.53,9.88Z"/>
  <path class="cls-3" d="m94.69,10.06c4.91-4.3,11.32-6.99,14.43-5.87,1.63.59,2.03,2.11,1.32,4.12-3.15-.18-7.23.44-12.47,2.62-2.55,1.06-4.54,1.69-6.13,2.03.79-.96,1.74-1.94,2.85-2.91Z"/>
  <polygon class="cls-1" points="63.18 55.71 60.29 56.64 57.9 63.4 54.09 74.18 57.11 73.52 60.84 62.57 63.18 55.71"/>
  <path class="cls-5" d="m64.44,86.65c2.75-9.57-1.48-15.35-8.62-13.76-6.52,1.44-13.88,8.75-17.13,16.94-3.51,8.83-1.43,16.51,5.5,16.51,7.69,0,17.23-9.22,20.24-19.68Z"/>
  <path class="cls-3" d="m59.69,91.89c-3.39,7.83-10.69,13.37-15.71,12.09-2.33-.59-3.65-2.56-3.96-5.19,3.59-.49,8.19-2.32,13.59-6.75,2.78-2.28,5.27-3.91,7.5-5.05-.21,1.52-.67,3.18-1.42,4.9Z"/>
  <polygon class="cls-19" points="55.7 57.44 54.62 56.04 50.23 60.44 42.04 68.65 42.83 70.32 51.21 61.93 55.7 57.44"/>
  <path class="cls-2" d="m35.3,87.61c6.31-6.27,9.76-14.91,7.84-18.84-1.74-3.55-7.3-1.88-12.54,3.41-5.2,5.24-8.83,12.79-8.1,17.27.81,4.95,6.55,4.37,12.8-1.84Z"/>
  <path class="cls-3" d="m31.74,88.57c-4.62,3.81-8.21,3.18-8.11-1.04.05-1.98.9-4.4,2.23-6.74.65,2.01,2.11,3.63,5.13,3.71,1.6.04,2.82.43,3.74,1.04-.92,1.12-1.93,2.15-3,3.03Z"/>
  <polygon class="cls-18" points="68.52 53.27 71.42 50.39 74.28 52.85 80.4 58.12 77.08 61.38 71.24 55.85 68.52 53.27"/>
  <path class="cls-10" d="m72.23,82.3c-4.31-5.78-1.46-15.77,5.95-23.06,7.49-7.37,18.28-10.61,24.76-6.73,7.5,4.49,6.36,16.44-3.54,25.88-9.76,9.31-22.2,10.56-27.17,3.9Z"/>
  <path class="cls-3" d="m77.96,82.09c5.21,3.88,14.97,1.12,21.17-6.53,3.05-3.76,4.41-7.77,4.19-11.14-5.07,4.49-11.42,8.61-18.77,10.8-3.55,1.05-6.5,2.35-9,3.77.51,1.21,1.3,2.27,2.4,3.1Z"/>
  <polygon class="cls-12" points="55.21 49.77 54.19 52.37 50.95 53.54 43.71 56.16 44.8 53.69 51.99 50.98 55.21 49.77"/>
  <path class="cls-16" d="m40.94,48.52c4.37-1.86,6.29.74,3.91,6.18-2.53,5.77-8.59,11.89-13.11,13.26-4.22,1.28-5.18-2.23-2.53-7.49s7.62-10.2,11.73-11.95Z"/>
  <path class="cls-3" d="m38,51.3c-3.27,1.83-6.91,6.04-8.3,9.6-.71,1.82-.73,3.18-.15,3.9,1.52-2.88,3.66-6.15,6.73-9.62,1.56-1.75,2.79-3.31,3.76-4.69-.59.12-1.27.38-2.04.81Z"/>
  <polygon class="cls-13" points="75.61 42.1 74.77 44.94 80.4 42.9 92.13 38.66 92.76 35.64 81.18 40 75.61 42.1"/>
  <path class="cls-4" d="m109.9,19.22c-9.19,3.9-17.11,11.78-18.52,18.32-1.52,7.07,4.88,10.9,15.35,7.73,11.68-3.53,22.2-13.7,22.2-21.58,0-7.18-8.94-8.75-19.03-4.47Z"/>
  <path class="cls-3" d="m111.57,20.71c7.76-2.4,13.33.11,11.75,6.08-.82,3.08-3.38,6.35-6.82,9.09-.13-3.99-1.69-7.62-5.88-9.75-1.99-1.01-3.23-2.15-3.96-3.34,1.57-.84,3.22-1.56,4.9-2.08Z"/>
  <path class="cls-17" d="m91.41,37.72c-3.15,14.69-20.55,31.75-35.46,35.06-12.45,2.77-16.43-6.04-11.24-17.89,4.62-10.55,15.91-22.01,26.89-27.19,12.66-5.97,22.5-2.57,19.8,10.01Z"/>
  <text class="cls-8" transform="translate(112.93 63.11) scale(.93 1)"><tspan x="0" y="0">Surfactants </tspan></text>
</svg>